<mxfile host="app.diagrams.net" agent="Mozilla/5.0 (X11; Linux x86_64) AppleWebKit/537.36 (KHTML, like Gecko) Chrome/139.0.0.0 Safari/537.36" version="28.2.0">
  <diagram name="PÃ¡gina-1" id="9B_imOZ4pnBejSovuVpY">
    <mxGraphModel grid="1" page="1" gridSize="10" guides="1" tooltips="1" connect="1" arrows="1" fold="1" pageScale="1" pageWidth="827" pageHeight="1169" math="0" shadow="0">
      <root>
        <mxCell id="0" />
        <mxCell id="1" parent="0" />
        <mxCell id="XfSACORq6odYgAUe5JZ7-1" value="" style="rounded=0;whiteSpace=wrap;html=1;" vertex="1" parent="1">
          <mxGeometry x="314" y="150" width="120" height="420" as="geometry" />
        </mxCell>
        <mxCell id="XfSACORq6odYgAUe5JZ7-40" style="edgeStyle=orthogonalEdgeStyle;rounded=0;orthogonalLoop=1;jettySize=auto;html=1;exitX=0;exitY=0;exitDx=0;exitDy=0;entryX=1;entryY=0.5;entryDx=0;entryDy=0;" edge="1" parent="1" source="XfSACORq6odYgAUe5JZ7-3" target="XfSACORq6odYgAUe5JZ7-9">
          <mxGeometry relative="1" as="geometry" />
        </mxCell>
        <mxCell id="XfSACORq6odYgAUe5JZ7-3" value="&lt;b&gt;3&lt;/b&gt;" style="rounded=0;whiteSpace=wrap;html=1;fillColor=#dae8fc;strokeColor=#6c8ebf;" vertex="1" parent="1">
          <mxGeometry x="314" y="340" width="120" height="50" as="geometry" />
        </mxCell>
        <mxCell id="XfSACORq6odYgAUe5JZ7-4" style="edgeStyle=orthogonalEdgeStyle;rounded=0;orthogonalLoop=1;jettySize=auto;html=1;exitX=1;exitY=0;exitDx=0;exitDy=0;" edge="1" parent="1" source="XfSACORq6odYgAUe5JZ7-5">
          <mxGeometry relative="1" as="geometry">
            <mxPoint x="470" y="289.83333333333337" as="targetPoint" />
          </mxGeometry>
        </mxCell>
        <mxCell id="XfSACORq6odYgAUe5JZ7-5" value="30" style="rounded=0;whiteSpace=wrap;html=1;fillColor=#dae8fc;strokeColor=#6c8ebf;" vertex="1" parent="1">
          <mxGeometry x="314" y="290" width="120" height="50" as="geometry" />
        </mxCell>
        <mxCell id="XfSACORq6odYgAUe5JZ7-6" value="" style="shape=hexagon;perimeter=hexagonPerimeter2;whiteSpace=wrap;html=1;fixedSize=1;fillColor=#fff2cc;strokeColor=#d6b656;" vertex="1" parent="1">
          <mxGeometry x="470" y="250" width="120" height="80" as="geometry" />
        </mxCell>
        <mxCell id="XfSACORq6odYgAUe5JZ7-7" value="" style="shape=hexagon;perimeter=hexagonPerimeter2;whiteSpace=wrap;html=1;fixedSize=1;fillColor=#fff2cc;strokeColor=#d6b656;" vertex="1" parent="1">
          <mxGeometry x="160" y="300" width="120" height="80" as="geometry" />
        </mxCell>
        <mxCell id="XfSACORq6odYgAUe5JZ7-8" value="&lt;b&gt;3&lt;/b&gt;" style="text;strokeColor=none;align=center;fillColor=none;html=1;verticalAlign=middle;whiteSpace=wrap;rounded=0;" vertex="1" parent="1">
          <mxGeometry x="470" y="275" width="20" height="30" as="geometry" />
        </mxCell>
        <mxCell id="XfSACORq6odYgAUe5JZ7-9" value="&lt;b&gt;4&lt;/b&gt;" style="text;strokeColor=none;align=center;fillColor=none;html=1;verticalAlign=middle;whiteSpace=wrap;rounded=0;" vertex="1" parent="1">
          <mxGeometry x="260" y="325" width="20" height="30" as="geometry" />
        </mxCell>
        <mxCell id="XfSACORq6odYgAUe5JZ7-10" value="&lt;i&gt;pointer&lt;/i&gt;" style="text;strokeColor=none;align=center;fillColor=none;html=1;verticalAlign=middle;whiteSpace=wrap;rounded=0;" vertex="1" parent="1">
          <mxGeometry x="185" y="350" width="40" height="30" as="geometry" />
        </mxCell>
        <mxCell id="XfSACORq6odYgAUe5JZ7-11" value="&lt;b&gt;ponteiro&lt;/b&gt;" style="text;strokeColor=none;align=center;fillColor=none;html=1;verticalAlign=middle;whiteSpace=wrap;rounded=0;" vertex="1" parent="1">
          <mxGeometry x="180" y="300" width="50" height="30" as="geometry" />
        </mxCell>
        <mxCell id="XfSACORq6odYgAUe5JZ7-12" value="&lt;i&gt;int&lt;/i&gt;" style="text;strokeColor=none;align=center;fillColor=none;html=1;verticalAlign=middle;whiteSpace=wrap;rounded=0;" vertex="1" parent="1">
          <mxGeometry x="540" y="300" width="30" height="30" as="geometry" />
        </mxCell>
        <mxCell id="XfSACORq6odYgAUe5JZ7-13" value="&lt;b&gt;local&lt;/b&gt;" style="text;strokeColor=none;align=center;fillColor=none;html=1;verticalAlign=middle;whiteSpace=wrap;rounded=0;" vertex="1" parent="1">
          <mxGeometry x="540" y="250" width="30" height="30" as="geometry" />
        </mxCell>
        <mxCell id="XfSACORq6odYgAUe5JZ7-17" style="edgeStyle=orthogonalEdgeStyle;rounded=0;orthogonalLoop=1;jettySize=auto;html=1;exitX=1;exitY=0.5;exitDx=0;exitDy=0;entryX=0.5;entryY=1;entryDx=0;entryDy=0;" edge="1" parent="1" source="XfSACORq6odYgAUe5JZ7-3" target="XfSACORq6odYgAUe5JZ7-8">
          <mxGeometry relative="1" as="geometry" />
        </mxCell>
        <mxCell id="XfSACORq6odYgAUe5JZ7-19" style="edgeStyle=orthogonalEdgeStyle;rounded=0;orthogonalLoop=1;jettySize=auto;html=1;exitX=1;exitY=0;exitDx=0;exitDy=0;" edge="1" parent="1" source="XfSACORq6odYgAUe5JZ7-20">
          <mxGeometry relative="1" as="geometry">
            <mxPoint x="470" y="389.83333333333337" as="targetPoint" />
          </mxGeometry>
        </mxCell>
        <mxCell id="XfSACORq6odYgAUe5JZ7-33" style="edgeStyle=orthogonalEdgeStyle;rounded=0;orthogonalLoop=1;jettySize=auto;html=1;exitX=0;exitY=0.5;exitDx=0;exitDy=0;entryX=0.5;entryY=0;entryDx=0;entryDy=0;" edge="1" parent="1" source="XfSACORq6odYgAUe5JZ7-20" target="XfSACORq6odYgAUe5JZ7-32">
          <mxGeometry relative="1" as="geometry" />
        </mxCell>
        <mxCell id="XfSACORq6odYgAUe5JZ7-20" value="&lt;b&gt;100&lt;/b&gt;" style="rounded=0;whiteSpace=wrap;html=1;fillColor=#dae8fc;strokeColor=#6c8ebf;" vertex="1" parent="1">
          <mxGeometry x="314" y="390" width="120" height="50" as="geometry" />
        </mxCell>
        <mxCell id="XfSACORq6odYgAUe5JZ7-21" value="" style="shape=hexagon;perimeter=hexagonPerimeter2;whiteSpace=wrap;html=1;fixedSize=1;fillColor=#fff2cc;strokeColor=#d6b656;" vertex="1" parent="1">
          <mxGeometry x="470" y="350" width="120" height="80" as="geometry" />
        </mxCell>
        <mxCell id="XfSACORq6odYgAUe5JZ7-22" value="&lt;b&gt;5&lt;/b&gt;" style="text;strokeColor=none;align=center;fillColor=none;html=1;verticalAlign=middle;whiteSpace=wrap;rounded=0;" vertex="1" parent="1">
          <mxGeometry x="470" y="375" width="20" height="30" as="geometry" />
        </mxCell>
        <mxCell id="XfSACORq6odYgAUe5JZ7-23" value="&lt;i&gt;pointer&lt;/i&gt;" style="text;strokeColor=none;align=center;fillColor=none;html=1;verticalAlign=middle;whiteSpace=wrap;rounded=0;" vertex="1" parent="1">
          <mxGeometry x="530" y="400" width="40" height="30" as="geometry" />
        </mxCell>
        <mxCell id="XfSACORq6odYgAUe5JZ7-24" value="&lt;b&gt;heap&lt;/b&gt;" style="text;strokeColor=none;align=center;fillColor=none;html=1;verticalAlign=middle;whiteSpace=wrap;rounded=0;" vertex="1" parent="1">
          <mxGeometry x="540" y="350" width="30" height="30" as="geometry" />
        </mxCell>
        <mxCell id="XfSACORq6odYgAUe5JZ7-31" style="edgeStyle=orthogonalEdgeStyle;rounded=0;orthogonalLoop=1;jettySize=auto;html=1;exitX=0;exitY=0;exitDx=0;exitDy=0;" edge="1" parent="1" source="XfSACORq6odYgAUe5JZ7-26">
          <mxGeometry relative="1" as="geometry">
            <mxPoint x="280" y="490.27272727272737" as="targetPoint" />
          </mxGeometry>
        </mxCell>
        <mxCell id="XfSACORq6odYgAUe5JZ7-26" value="40" style="rounded=0;whiteSpace=wrap;html=1;fillColor=#f8cecc;strokeColor=#b85450;" vertex="1" parent="1">
          <mxGeometry x="314" y="490" width="120" height="50" as="geometry" />
        </mxCell>
        <mxCell id="XfSACORq6odYgAUe5JZ7-32" value="&lt;b&gt;100&lt;/b&gt;" style="text;strokeColor=none;align=center;fillColor=none;html=1;verticalAlign=middle;whiteSpace=wrap;rounded=0;" vertex="1" parent="1">
          <mxGeometry x="250" y="480" width="30" height="20" as="geometry" />
        </mxCell>
        <mxCell id="XfSACORq6odYgAUe5JZ7-34" value="" style="rounded=0;whiteSpace=wrap;html=1;fillColor=#f8cecc;strokeColor=#b85450;opacity=80;" vertex="1" parent="1">
          <mxGeometry x="314" y="480" width="120" height="10" as="geometry" />
        </mxCell>
        <mxCell id="XfSACORq6odYgAUe5JZ7-36" value="" style="rounded=0;whiteSpace=wrap;html=1;fillColor=#dae8fc;strokeColor=#6c8ebf;opacity=80;" vertex="1" parent="1">
          <mxGeometry x="314" y="440" width="120" height="10" as="geometry" />
        </mxCell>
        <mxCell id="XfSACORq6odYgAUe5JZ7-41" value="20" style="rounded=0;whiteSpace=wrap;html=1;fillColor=#6d8764;strokeColor=#3A5431;fontColor=#ffffff;" vertex="1" parent="1">
          <mxGeometry x="314" y="230" width="120" height="50" as="geometry" />
        </mxCell>
        <mxCell id="XfSACORq6odYgAUe5JZ7-51" style="edgeStyle=orthogonalEdgeStyle;rounded=0;orthogonalLoop=1;jettySize=auto;html=1;exitX=1;exitY=0;exitDx=0;exitDy=0;entryX=0;entryY=0.5;entryDx=0;entryDy=0;" edge="1" parent="1" source="XfSACORq6odYgAUe5JZ7-42" target="XfSACORq6odYgAUe5JZ7-48">
          <mxGeometry relative="1" as="geometry" />
        </mxCell>
        <mxCell id="XfSACORq6odYgAUe5JZ7-52" style="edgeStyle=orthogonalEdgeStyle;rounded=0;orthogonalLoop=1;jettySize=auto;html=1;exitX=0;exitY=1;exitDx=0;exitDy=0;entryX=1;entryY=0.5;entryDx=0;entryDy=0;" edge="1" parent="1" source="XfSACORq6odYgAUe5JZ7-42" target="XfSACORq6odYgAUe5JZ7-44">
          <mxGeometry relative="1" as="geometry" />
        </mxCell>
        <mxCell id="XfSACORq6odYgAUe5JZ7-42" value="10" style="rounded=0;whiteSpace=wrap;html=1;fillColor=#6d8764;strokeColor=#3A5431;fontColor=#ffffff;" vertex="1" parent="1">
          <mxGeometry x="314" y="180" width="120" height="50" as="geometry" />
        </mxCell>
        <mxCell id="XfSACORq6odYgAUe5JZ7-43" value="" style="shape=hexagon;perimeter=hexagonPerimeter2;whiteSpace=wrap;html=1;fixedSize=1;fillColor=#fff2cc;strokeColor=#d6b656;" vertex="1" parent="1">
          <mxGeometry x="160" y="190" width="120" height="80" as="geometry" />
        </mxCell>
        <mxCell id="XfSACORq6odYgAUe5JZ7-44" value="&lt;b&gt;2&lt;/b&gt;" style="text;strokeColor=none;align=center;fillColor=none;html=1;verticalAlign=middle;whiteSpace=wrap;rounded=0;" vertex="1" parent="1">
          <mxGeometry x="260" y="215" width="20" height="30" as="geometry" />
        </mxCell>
        <mxCell id="XfSACORq6odYgAUe5JZ7-45" value="&lt;i&gt;int&lt;/i&gt;" style="text;strokeColor=none;align=center;fillColor=none;html=1;verticalAlign=middle;whiteSpace=wrap;rounded=0;" vertex="1" parent="1">
          <mxGeometry x="185" y="240" width="40" height="30" as="geometry" />
        </mxCell>
        <mxCell id="XfSACORq6odYgAUe5JZ7-46" value="&lt;b&gt;estatica&lt;/b&gt;" style="text;strokeColor=none;align=center;fillColor=none;html=1;verticalAlign=middle;whiteSpace=wrap;rounded=0;" vertex="1" parent="1">
          <mxGeometry x="180" y="190" width="50" height="30" as="geometry" />
        </mxCell>
        <mxCell id="XfSACORq6odYgAUe5JZ7-47" value="" style="shape=hexagon;perimeter=hexagonPerimeter2;whiteSpace=wrap;html=1;fixedSize=1;fillColor=#fff2cc;strokeColor=#d6b656;" vertex="1" parent="1">
          <mxGeometry x="470" y="140" width="120" height="80" as="geometry" />
        </mxCell>
        <mxCell id="XfSACORq6odYgAUe5JZ7-48" value="&lt;b&gt;1&lt;/b&gt;" style="text;strokeColor=none;align=center;fillColor=none;html=1;verticalAlign=middle;whiteSpace=wrap;rounded=0;" vertex="1" parent="1">
          <mxGeometry x="470" y="165" width="20" height="30" as="geometry" />
        </mxCell>
        <mxCell id="XfSACORq6odYgAUe5JZ7-49" value="&lt;i&gt;int&lt;/i&gt;" style="text;strokeColor=none;align=center;fillColor=none;html=1;verticalAlign=middle;whiteSpace=wrap;rounded=0;" vertex="1" parent="1">
          <mxGeometry x="540" y="190" width="30" height="30" as="geometry" />
        </mxCell>
        <mxCell id="XfSACORq6odYgAUe5JZ7-50" value="&lt;b&gt;global&lt;/b&gt;" style="text;strokeColor=none;align=center;fillColor=none;html=1;verticalAlign=middle;whiteSpace=wrap;rounded=0;" vertex="1" parent="1">
          <mxGeometry x="530" y="140" width="40" height="30" as="geometry" />
        </mxCell>
      </root>
    </mxGraphModel>
  </diagram>
</mxfile>
